<svg width="133" height="100" viewBox="0 0 133 100" fill="none" xmlns="http://www.w3.org/2000/svg">
<g opacity="0.2">
<path fill-rule="evenodd" clip-rule="evenodd" d="M22.5716 94.14C23.1384 94.2634 23.6979 93.904 23.8214 93.3372C24.3732 90.8035 24.8753 88.2827 25.3732 85.7835C27.8787 73.2051 30.2755 61.1731 38.3507 50.7913C44.7912 42.5114 55.3314 34.8065 66.0285 35.2832C65.6162 39.6956 66.7493 44.054 69.2019 48.327C70.36 50.3449 72.1091 52.9731 74.3132 54.9695C76.5095 56.9588 79.3229 58.4612 82.5326 57.8251C85.303 57.2761 86.3102 54.78 86.5603 52.538C86.8148 50.2566 86.3755 47.7484 85.8153 46.2337C83.2013 39.1653 75.6493 34.5111 68.44 33.4141C68.7999 31.749 69.4095 30.0767 70.2808 28.3946C74.1771 20.872 80.4217 15.6787 87.6602 11.6982C94.5959 7.88425 102.373 5.22014 109.79 2.67896C110.132 2.56191 110.473 2.44511 110.813 2.32848C111.362 2.14028 111.654 1.54287 111.466 0.99415C111.277 0.445427 110.68 0.153172 110.131 0.34138C109.775 0.463748 109.416 0.586458 109.057 0.709622C101.682 3.23559 93.748 5.95309 86.648 9.85742C79.1851 13.9613 72.5656 19.4158 68.4154 27.4284C67.4158 29.3582 66.7298 31.2813 66.3389 33.1953C66.2678 33.1914 66.1968 33.1879 66.1259 33.1847C54.4295 32.6615 43.3087 40.9957 36.6926 49.5015C28.2847 60.3109 25.7825 72.913 23.2832 85.5007C22.7931 87.9689 22.3031 90.4366 21.7688 92.8901C21.6453 93.457 22.0047 94.0165 22.5716 94.14ZM68.1196 35.4889C74.7598 36.4915 81.5612 40.7869 83.845 46.9624C84.3039 48.2033 84.687 50.3825 84.4725 52.3051C84.2536 54.2672 83.5004 55.4917 82.1242 55.7645C79.8557 56.214 77.6973 55.2003 75.7234 53.4125C73.7573 51.6317 72.1376 49.2218 71.0238 47.2812C68.7744 43.3621 67.7523 39.443 68.1196 35.4889Z" fill="black"/>
<path fill-rule="evenodd" clip-rule="evenodd" d="M21.7637 94.6985C21.7008 94.4328 21.6392 94.1723 21.5974 94.0429C21.2466 92.958 20.8703 91.8743 20.4984 90.8033C20.3434 90.357 20.1892 89.9129 20.0379 89.4719C19.8497 88.9232 19.2523 88.6309 18.7036 88.8192C18.1549 89.0074 17.8626 89.6048 18.0508 90.1535C18.2078 90.6111 18.3652 91.0645 18.5219 91.5158C18.8906 92.5774 19.255 93.6268 19.5985 94.6892C19.5983 94.6885 19.5983 94.6887 19.5987 94.6898C19.5998 94.6938 19.6046 94.7101 19.6135 94.7446C19.6239 94.7847 19.6367 94.8365 19.6523 94.901C19.6699 94.9739 19.6886 95.0525 19.7094 95.1406C19.7269 95.2144 19.746 95.2948 19.7673 95.384C19.8572 95.7599 19.9739 96.2336 20.1076 96.6923C20.2372 97.1368 20.3995 97.6266 20.592 98.0085C20.6832 98.1896 20.8223 98.4311 21.0267 98.6273C21.2327 98.8251 21.7089 99.1497 22.3222 98.9394C23.0489 98.6901 23.6446 98.248 24.1286 97.8022C24.5477 97.4161 24.929 96.9819 25.2488 96.6179C25.2942 96.5661 25.3384 96.5158 25.3812 96.4673C25.7828 96.0125 26.2293 95.6082 26.7196 95.1888C26.8456 95.081 26.9769 94.9702 27.1115 94.8568C27.4831 94.5434 27.8791 94.2094 28.255 93.8602C28.68 93.4654 28.7044 92.8007 28.3096 92.3758C27.9147 91.9508 27.2501 91.9263 26.8251 92.3212C26.4889 92.6335 26.1514 92.9182 25.7933 93.2202C25.6505 93.3406 25.5045 93.4637 25.354 93.5924C24.8422 94.0303 24.3067 94.5104 23.8065 95.0768C23.7591 95.1305 23.7123 95.1838 23.666 95.2364C23.3394 95.6077 23.0365 95.9519 22.7053 96.2571C22.5611 96.3899 22.4208 96.5063 22.2829 96.6059C22.2316 96.458 22.1783 96.2894 22.1244 96.1042C22.0056 95.6969 21.8987 95.2642 21.8104 94.8953C21.7949 94.8306 21.7793 94.7644 21.7637 94.6985Z" fill="black"/>
</g>
</svg>
